<mxfile host="app.diagrams.net" agent="Mozilla/5.0 (Windows NT 10.0; Win64; x64) AppleWebKit/537.36 (KHTML, like Gecko) Chrome/131.0.0.0 Safari/537.36" version="24.8.6">
  <diagram name="Сторінка-1" id="MpP2-mI17N1aqxEpuHiN">
    <mxGraphModel dx="1685" dy="965" grid="1" gridSize="10" guides="1" tooltips="1" connect="1" arrows="1" fold="1" page="1" pageScale="1" pageWidth="827" pageHeight="1169" math="0" shadow="0">
      <root>
        <mxCell id="0" />
        <mxCell id="1" parent="0" />
        <mxCell id="RQa-8GTmYevAVtcZOcdk-33" style="edgeStyle=orthogonalEdgeStyle;rounded=0;orthogonalLoop=1;jettySize=auto;html=1;" edge="1" parent="1" source="RQa-8GTmYevAVtcZOcdk-1" target="RQa-8GTmYevAVtcZOcdk-2">
          <mxGeometry relative="1" as="geometry" />
        </mxCell>
        <mxCell id="RQa-8GTmYevAVtcZOcdk-1" value="start" style="ellipse;whiteSpace=wrap;html=1;" vertex="1" parent="1">
          <mxGeometry x="350" y="20" width="120" height="80" as="geometry" />
        </mxCell>
        <mxCell id="RQa-8GTmYevAVtcZOcdk-34" style="edgeStyle=orthogonalEdgeStyle;rounded=0;orthogonalLoop=1;jettySize=auto;html=1;entryX=0.5;entryY=0;entryDx=0;entryDy=0;" edge="1" parent="1" source="RQa-8GTmYevAVtcZOcdk-2" target="RQa-8GTmYevAVtcZOcdk-8">
          <mxGeometry relative="1" as="geometry" />
        </mxCell>
        <mxCell id="RQa-8GTmYevAVtcZOcdk-2" value="int n;" style="rounded=0;whiteSpace=wrap;html=1;" vertex="1" parent="1">
          <mxGeometry x="354" y="150" width="120" height="60" as="geometry" />
        </mxCell>
        <mxCell id="RQa-8GTmYevAVtcZOcdk-36" style="edgeStyle=orthogonalEdgeStyle;rounded=0;orthogonalLoop=1;jettySize=auto;html=1;" edge="1" parent="1" source="RQa-8GTmYevAVtcZOcdk-4" target="RQa-8GTmYevAVtcZOcdk-7">
          <mxGeometry relative="1" as="geometry" />
        </mxCell>
        <mxCell id="RQa-8GTmYevAVtcZOcdk-4" value="&amp;nbsp; string s;" style="rounded=0;whiteSpace=wrap;html=1;" vertex="1" parent="1">
          <mxGeometry x="354" y="340" width="120" height="60" as="geometry" />
        </mxCell>
        <mxCell id="RQa-8GTmYevAVtcZOcdk-38" style="edgeStyle=orthogonalEdgeStyle;rounded=0;orthogonalLoop=1;jettySize=auto;html=1;" edge="1" parent="1" source="RQa-8GTmYevAVtcZOcdk-6" target="RQa-8GTmYevAVtcZOcdk-9">
          <mxGeometry relative="1" as="geometry" />
        </mxCell>
        <mxCell id="RQa-8GTmYevAVtcZOcdk-6" value="int signal = 15;" style="rounded=0;whiteSpace=wrap;html=1;" vertex="1" parent="1">
          <mxGeometry x="354" y="510" width="120" height="60" as="geometry" />
        </mxCell>
        <mxCell id="RQa-8GTmYevAVtcZOcdk-37" style="edgeStyle=orthogonalEdgeStyle;rounded=0;orthogonalLoop=1;jettySize=auto;html=1;" edge="1" parent="1" source="RQa-8GTmYevAVtcZOcdk-7" target="RQa-8GTmYevAVtcZOcdk-6">
          <mxGeometry relative="1" as="geometry" />
        </mxCell>
        <mxCell id="RQa-8GTmYevAVtcZOcdk-7" value="&amp;nbsp; &amp;nbsp; cin &amp;gt;&amp;gt; s;" style="shape=parallelogram;perimeter=parallelogramPerimeter;whiteSpace=wrap;html=1;fixedSize=1;" vertex="1" parent="1">
          <mxGeometry x="354" y="430" width="120" height="60" as="geometry" />
        </mxCell>
        <mxCell id="RQa-8GTmYevAVtcZOcdk-35" style="edgeStyle=orthogonalEdgeStyle;rounded=0;orthogonalLoop=1;jettySize=auto;html=1;" edge="1" parent="1" source="RQa-8GTmYevAVtcZOcdk-8" target="RQa-8GTmYevAVtcZOcdk-4">
          <mxGeometry relative="1" as="geometry" />
        </mxCell>
        <mxCell id="RQa-8GTmYevAVtcZOcdk-8" value="&amp;nbsp; &amp;nbsp; cin &amp;gt;&amp;gt; n;" style="shape=parallelogram;perimeter=parallelogramPerimeter;whiteSpace=wrap;html=1;fixedSize=1;" vertex="1" parent="1">
          <mxGeometry x="350" y="250" width="120" height="60" as="geometry" />
        </mxCell>
        <mxCell id="RQa-8GTmYevAVtcZOcdk-9" value="start for" style="ellipse;whiteSpace=wrap;html=1;" vertex="1" parent="1">
          <mxGeometry x="354" y="620" width="120" height="80" as="geometry" />
        </mxCell>
        <mxCell id="RQa-8GTmYevAVtcZOcdk-11" style="edgeStyle=orthogonalEdgeStyle;rounded=0;orthogonalLoop=1;jettySize=auto;html=1;" edge="1" parent="1" source="RQa-8GTmYevAVtcZOcdk-10" target="RQa-8GTmYevAVtcZOcdk-16">
          <mxGeometry relative="1" as="geometry">
            <mxPoint x="410" y="890" as="targetPoint" />
          </mxGeometry>
        </mxCell>
        <mxCell id="RQa-8GTmYevAVtcZOcdk-13" style="edgeStyle=orthogonalEdgeStyle;rounded=0;orthogonalLoop=1;jettySize=auto;html=1;" edge="1" parent="1" source="RQa-8GTmYevAVtcZOcdk-10" target="RQa-8GTmYevAVtcZOcdk-17">
          <mxGeometry relative="1" as="geometry">
            <mxPoint x="330" y="890" as="targetPoint" />
          </mxGeometry>
        </mxCell>
        <mxCell id="RQa-8GTmYevAVtcZOcdk-14" style="edgeStyle=orthogonalEdgeStyle;rounded=0;orthogonalLoop=1;jettySize=auto;html=1;" edge="1" parent="1" source="RQa-8GTmYevAVtcZOcdk-10" target="RQa-8GTmYevAVtcZOcdk-15">
          <mxGeometry relative="1" as="geometry">
            <mxPoint x="520" y="880" as="targetPoint" />
          </mxGeometry>
        </mxCell>
        <mxCell id="RQa-8GTmYevAVtcZOcdk-27" style="edgeStyle=orthogonalEdgeStyle;rounded=0;orthogonalLoop=1;jettySize=auto;html=1;" edge="1" parent="1" source="RQa-8GTmYevAVtcZOcdk-10" target="RQa-8GTmYevAVtcZOcdk-28">
          <mxGeometry relative="1" as="geometry">
            <mxPoint x="430" y="1130" as="targetPoint" />
            <Array as="points">
              <mxPoint x="410" y="710" />
              <mxPoint x="760" y="710" />
              <mxPoint x="760" y="1120" />
            </Array>
          </mxGeometry>
        </mxCell>
        <mxCell id="RQa-8GTmYevAVtcZOcdk-10" value="char c : s" style="rhombus;whiteSpace=wrap;html=1;" vertex="1" parent="1">
          <mxGeometry x="370" y="740" width="80" height="80" as="geometry" />
        </mxCell>
        <mxCell id="RQa-8GTmYevAVtcZOcdk-20" style="edgeStyle=orthogonalEdgeStyle;rounded=0;orthogonalLoop=1;jettySize=auto;html=1;" edge="1" parent="1" source="RQa-8GTmYevAVtcZOcdk-15" target="RQa-8GTmYevAVtcZOcdk-21">
          <mxGeometry relative="1" as="geometry">
            <mxPoint x="520" y="1000" as="targetPoint" />
          </mxGeometry>
        </mxCell>
        <mxCell id="RQa-8GTmYevAVtcZOcdk-15" value="else if (c == &#39;z&#39;)" style="rhombus;whiteSpace=wrap;html=1;" vertex="1" parent="1">
          <mxGeometry x="480" y="840" width="80" height="80" as="geometry" />
        </mxCell>
        <mxCell id="RQa-8GTmYevAVtcZOcdk-19" style="edgeStyle=orthogonalEdgeStyle;rounded=0;orthogonalLoop=1;jettySize=auto;html=1;" edge="1" parent="1" source="RQa-8GTmYevAVtcZOcdk-16" target="RQa-8GTmYevAVtcZOcdk-22">
          <mxGeometry relative="1" as="geometry">
            <mxPoint x="410" y="990" as="targetPoint" />
          </mxGeometry>
        </mxCell>
        <mxCell id="RQa-8GTmYevAVtcZOcdk-16" value="&amp;nbsp;else if (c == &#39;p&#39;)&lt;span style=&quot;white-space: pre;&quot;&gt;&#x9;&lt;/span&gt;" style="rhombus;whiteSpace=wrap;html=1;" vertex="1" parent="1">
          <mxGeometry x="370" y="850" width="80" height="80" as="geometry" />
        </mxCell>
        <mxCell id="RQa-8GTmYevAVtcZOcdk-18" style="edgeStyle=orthogonalEdgeStyle;rounded=0;orthogonalLoop=1;jettySize=auto;html=1;" edge="1" parent="1" source="RQa-8GTmYevAVtcZOcdk-17" target="RQa-8GTmYevAVtcZOcdk-23">
          <mxGeometry relative="1" as="geometry">
            <mxPoint x="300" y="1000" as="targetPoint" />
          </mxGeometry>
        </mxCell>
        <mxCell id="RQa-8GTmYevAVtcZOcdk-17" value="&amp;nbsp;if (c == &#39;k&#39;)" style="rhombus;whiteSpace=wrap;html=1;" vertex="1" parent="1">
          <mxGeometry x="260" y="850" width="80" height="80" as="geometry" />
        </mxCell>
        <mxCell id="RQa-8GTmYevAVtcZOcdk-26" style="edgeStyle=orthogonalEdgeStyle;rounded=0;orthogonalLoop=1;jettySize=auto;html=1;" edge="1" parent="1" source="RQa-8GTmYevAVtcZOcdk-21">
          <mxGeometry relative="1" as="geometry">
            <mxPoint x="410" y="1080" as="targetPoint" />
            <Array as="points">
              <mxPoint x="580" y="1060" />
              <mxPoint x="581" y="1060" />
            </Array>
          </mxGeometry>
        </mxCell>
        <mxCell id="RQa-8GTmYevAVtcZOcdk-21" value="&amp;nbsp;signal = (signal &amp;gt; 0) ? 0 : 15;" style="rounded=0;whiteSpace=wrap;html=1;" vertex="1" parent="1">
          <mxGeometry x="520" y="970" width="120" height="60" as="geometry" />
        </mxCell>
        <mxCell id="RQa-8GTmYevAVtcZOcdk-25" style="edgeStyle=orthogonalEdgeStyle;rounded=0;orthogonalLoop=1;jettySize=auto;html=1;" edge="1" parent="1" source="RQa-8GTmYevAVtcZOcdk-22">
          <mxGeometry relative="1" as="geometry">
            <mxPoint x="170" y="970" as="targetPoint" />
            <Array as="points">
              <mxPoint x="410" y="1060" />
              <mxPoint x="411" y="1060" />
              <mxPoint x="411" y="1080" />
              <mxPoint x="160" y="1080" />
              <mxPoint x="160" y="970" />
            </Array>
          </mxGeometry>
        </mxCell>
        <mxCell id="RQa-8GTmYevAVtcZOcdk-22" value="signal = (signal &amp;gt; 0) ? 15 : 0" style="rounded=0;whiteSpace=wrap;html=1;" vertex="1" parent="1">
          <mxGeometry x="350" y="970" width="120" height="60" as="geometry" />
        </mxCell>
        <mxCell id="RQa-8GTmYevAVtcZOcdk-24" style="edgeStyle=orthogonalEdgeStyle;rounded=0;orthogonalLoop=1;jettySize=auto;html=1;entryX=0;entryY=0;entryDx=0;entryDy=0;" edge="1" parent="1" source="RQa-8GTmYevAVtcZOcdk-23" target="RQa-8GTmYevAVtcZOcdk-10">
          <mxGeometry relative="1" as="geometry">
            <mxPoint x="270" y="660" as="targetPoint" />
            <Array as="points">
              <mxPoint x="170" y="1000" />
              <mxPoint x="170" y="760" />
            </Array>
          </mxGeometry>
        </mxCell>
        <mxCell id="RQa-8GTmYevAVtcZOcdk-23" value="&amp;nbsp;signal = max(signal - 1, 0);" style="rounded=0;whiteSpace=wrap;html=1;" vertex="1" parent="1">
          <mxGeometry x="190" y="970" width="120" height="60" as="geometry" />
        </mxCell>
        <mxCell id="RQa-8GTmYevAVtcZOcdk-29" style="edgeStyle=orthogonalEdgeStyle;rounded=0;orthogonalLoop=1;jettySize=auto;html=1;" edge="1" parent="1" source="RQa-8GTmYevAVtcZOcdk-28" target="RQa-8GTmYevAVtcZOcdk-30">
          <mxGeometry relative="1" as="geometry">
            <mxPoint x="400" y="1280" as="targetPoint" />
          </mxGeometry>
        </mxCell>
        <mxCell id="RQa-8GTmYevAVtcZOcdk-28" value="end for" style="ellipse;whiteSpace=wrap;html=1;" vertex="1" parent="1">
          <mxGeometry x="340" y="1130" width="120" height="80" as="geometry" />
        </mxCell>
        <mxCell id="RQa-8GTmYevAVtcZOcdk-31" style="edgeStyle=orthogonalEdgeStyle;rounded=0;orthogonalLoop=1;jettySize=auto;html=1;" edge="1" parent="1" source="RQa-8GTmYevAVtcZOcdk-30" target="RQa-8GTmYevAVtcZOcdk-32">
          <mxGeometry relative="1" as="geometry">
            <mxPoint x="400" y="1390" as="targetPoint" />
          </mxGeometry>
        </mxCell>
        <mxCell id="RQa-8GTmYevAVtcZOcdk-30" value="&amp;nbsp; &amp;nbsp;cout &amp;lt;&amp;lt; signal &amp;lt;&amp;lt; endl;" style="shape=parallelogram;perimeter=parallelogramPerimeter;whiteSpace=wrap;html=1;fixedSize=1;" vertex="1" parent="1">
          <mxGeometry x="340" y="1250" width="120" height="60" as="geometry" />
        </mxCell>
        <mxCell id="RQa-8GTmYevAVtcZOcdk-32" value="end" style="ellipse;whiteSpace=wrap;html=1;" vertex="1" parent="1">
          <mxGeometry x="340" y="1350" width="120" height="80" as="geometry" />
        </mxCell>
      </root>
    </mxGraphModel>
  </diagram>
</mxfile>
